<svg xmlns="http://www.w3.org/2000/svg" viewBox="0 0 1000 750" width="1000" height="750" style="background:#ffffff; font-family:'Liberation Serif', Georgia, serif;">
  <!-- Background border -->
  <rect width="1000" height="750" fill="#ffffff" />
  <rect x="15" y="15" width="970" height="720" fill="none" stroke="#d4af37" stroke-width="2" />
  <rect x="20" y="20" width="960" height="710" fill="none" stroke="#f1f5f9" stroke-width="1" />

  <!-- Top Elite Ribbon Banner -->
  <polygon points="430,20 570,20 550,68 500,82 450,68" fill="#b91c1c" />
  <text x="500" y="55" font-family="'Liberation Sans', Arial, sans-serif" font-size="24" font-weight="bold" fill="#ffffff" text-anchor="middle" letter-spacing="1">Elite</text>

  <!-- Left: NPTEL Logo Motif -->
  <g transform="translate(85, 95)">
    <circle cx="35" cy="35" r="38" fill="none" stroke="#b91c1c" stroke-width="3" stroke-dasharray="6,3" />
    <circle cx="35" cy="35" r="28" fill="none" stroke="#d97706" stroke-width="2" />
    <circle cx="35" cy="35" r="8" fill="#b91c1c" />
    <path d="M 15 35 Q 35 15 55 35 Q 35 55 15 35" fill="none" stroke="#4f46e5" stroke-width="1.5" />
    <path d="M 35 15 Q 55 35 35 55 Q 15 35 35 15" fill="none" stroke="#059669" stroke-width="1.5" />
  </g>

  <!-- Title Center -->
  <text x="500" y="125" font-family="'Liberation Serif', serif" font-size="34" font-weight="bold" fill="#881337" text-anchor="middle" letter-spacing="0.5">NPTEL ONLINE CERTIFICATION</text>
  <text x="500" y="150" font-family="'Liberation Sans', sans-serif" font-size="14" fill="#334155" text-anchor="middle">(Funded by the MoE, Govt. of India)</text>

  <!-- Right: Skill India Logo & Student Photo -->
  <g transform="translate(835, 38)">
    <text x="55" y="65" font-family="'Liberation Sans', sans-serif" font-size="18" font-weight="bold" fill="#0284c7" text-anchor="middle">Skill India</text>
    <text x="55" y="80" font-family="'Liberation Sans', sans-serif" font-size="10" fill="#475569" text-anchor="middle">कौशल भारत - कुशल भारत</text>
    
    <!-- Photo Box -->
    <rect x="0" y="95" width="110" height="135" fill="#f8fafc" stroke="#3b82f6" stroke-width="2" rx="4" />
    <rect x="0" y="95" width="110" height="135" fill="#2563eb" opacity="0.15" />
    <circle cx="55" cy="140" r="24" fill="#1e3a8a" />
    <path d="M 22 215 C 22 178, 88 178, 88 215 Z" fill="#991b1b" />
    <line x1="35" y1="180" x2="35" y2="225" stroke="#ffffff" stroke-width="1.5" stroke-dasharray="3,3" />
    <line x1="75" y1="180" x2="75" y2="225" stroke="#ffffff" stroke-width="1.5" stroke-dasharray="3,3" />
    <line x1="22" y1="200" x2="88" y2="200" stroke="#ffffff" stroke-width="1.5" stroke-dasharray="3,3" />
    <circle cx="55" cy="138" r="19" fill="#fcd34d" />
    <path d="M 38 132 Q 55 116 72 132 Q 55 124 38 132" fill="#111827" />
  </g>

  <!-- Awarded to -->
  <text x="500" y="210" font-family="'Liberation Serif', serif" font-size="18" font-style="italic" fill="#334155" text-anchor="middle">This certificate is awarded to</text>
  
  <text x="500" y="255" font-family="'Liberation Serif', serif" font-size="28" font-weight="bold" fill="#0f172a" text-anchor="middle" letter-spacing="1">PERUMALLA PAVAN KUMAR</text>
  
  <text x="500" y="295" font-family="'Liberation Serif', serif" font-size="17" fill="#334155" text-anchor="middle">for successfully completing the course</text>
  
  <text x="500" y="340" font-family="'Liberation Serif', serif" font-size="28" font-weight="bold" fill="#0f172a" text-anchor="middle">Introduction to Internet of Things</text>

  <g transform="translate(300, 375)">
    <text x="135" y="20" font-family="'Liberation Serif', serif" font-size="18" fill="#0f172a">with a consolidated score of</text>
    <text x="350" y="20" font-family="'Liberation Serif', serif" font-size="24" font-weight="bold" fill="#0f172a">73</text>
    <text x="395" y="20" font-family="'Liberation Serif', serif" font-size="18" fill="#0f172a">%</text>
  </g>

  <!-- Scores Table -->
  <g transform="translate(230, 420)">
    <rect x="0" y="0" width="540" height="42" fill="#ffffff" stroke="#334155" stroke-width="1.5" />
    <line x1="285" y1="0" x2="285" y2="42" stroke="#334155" stroke-width="1.5" />
    <line x1="190" y1="0" x2="190" y2="42" stroke="#cbd5e1" stroke-width="1" />
    <line x1="455" y1="0" x2="455" y2="42" stroke="#cbd5e1" stroke-width="1" />
    
    <text x="95" y="27" font-family="'Liberation Serif', serif" font-size="17" font-weight="bold" fill="#0f172a" text-anchor="middle">Online Assignments</text>
    <text x="238" y="27" font-family="'Liberation Serif', serif" font-size="17" font-weight="bold" fill="#0f172a" text-anchor="middle">22.28/25</text>

    <text x="370" y="27" font-family="'Liberation Serif', serif" font-size="17" font-weight="bold" fill="#0f172a" text-anchor="middle">Proctored Exam</text>
    <text x="498" y="27" font-family="'Liberation Serif', serif" font-size="17" font-weight="bold" fill="#0f172a" text-anchor="middle">51/75</text>
  </g>

  <!-- Stats & Duration -->
  <text x="500" y="500" font-family="'Liberation Serif', serif" font-size="16" fill="#334155" text-anchor="middle">Total number of candidates certified in this course: <tspan font-weight="bold">43953</tspan></text>
  
  <text x="500" y="555" font-family="'Liberation Serif', serif" font-size="17" font-weight="bold" fill="#0f172a" text-anchor="middle">Jan-Apr 2026</text>
  <text x="500" y="580" font-family="'Liberation Serif', serif" font-size="15" fill="#334155" text-anchor="middle">(12 week course)</text>

  <!-- Coordinator Signature -->
  <g transform="translate(770, 525)">
    <path d="M 20 25 Q 40 5 60 20 T 90 10 T 120 28 T 150 15" fill="none" stroke="#0f172a" stroke-width="1.8" />
    <text x="85" y="45" font-family="'Liberation Serif', serif" font-size="14" font-weight="bold" fill="#0f172a" text-anchor="middle">Prof. Haimanti Banerji</text>
    <text x="85" y="62" font-family="'Liberation Serif', serif" font-size="12" fill="#334155" text-anchor="middle">Coordinator, NPTEL</text>
    <text x="85" y="78" font-family="'Liberation Serif', serif" font-size="12" fill="#334155" text-anchor="middle">IIT Kharagpur</text>
  </g>

  <!-- Bottom Tan Banner -->
  <rect x="0" y="625" width="1000" height="65" fill="#fed7aa" opacity="0.65" />
  
  <!-- IIT Kharagpur Left -->
  <g transform="translate(30, 630)">
    <circle cx="28" cy="27" r="22" fill="#1e3a8a" />
    <polygon points="28,10 33,24 47,24 36,33 40,46 28,38 16,46 20,33 9,24 23,24" fill="#fcd34d" />
    <text x="60" y="33" font-family="'Liberation Serif', serif" font-size="16" font-weight="bold" fill="#431407">Indian Institute of Technology Kharagpur</text>
  </g>

  <!-- Swayam Right -->
  <g transform="translate(800, 630)">
    <rect x="0" y="4" width="165" height="48" fill="#ffffff" stroke="#fdba74" rx="4" />
    <text x="82" y="16" font-family="'Liberation Sans', sans-serif" font-size="8" font-weight="bold" fill="#ea580c" text-anchor="middle">FREE ONLINE EDUCATION</text>
    <text x="82" y="37" font-family="'Liberation Sans', sans-serif" font-size="20" font-weight="bold" fill="#0284c7" text-anchor="middle">swayam</text>
    <text x="82" y="47" font-family="'Liberation Sans', sans-serif" font-size="7" fill="#475569" text-anchor="middle">शिक्षित भारत, उन्नत भारत</text>
  </g>

  <!-- Dark Red Footer Strip -->
  <rect x="0" y="690" width="1000" height="60" fill="#881337" />
  <text x="35" y="725" font-family="'Liberation Sans', sans-serif" font-size="13" font-weight="bold" fill="#ffffff">Roll No: NPTEL26CS37S868400846</text>
  
  <!-- QR Code -->
  <g transform="translate(490, 695)">
    <rect x="0" y="3" width="40" height="40" fill="#ffffff" />
    <rect x="4" y="7" width="12" height="12" fill="#000000" />
    <rect x="24" y="7" width="12" height="12" fill="#000000" />
    <rect x="4" y="27" width="12" height="12" fill="#000000" />
    <rect x="20" y="23" width="8" height="8" fill="#000000" />
    <rect x="28" y="31" width="8" height="8" fill="#000000" />
    <text x="-12" y="27" font-family="'Liberation Sans', sans-serif" font-size="12" fill="#ffffff" text-anchor="end">To verify the certificate</text>
  </g>

  <text x="965" y="725" font-family="'Liberation Sans', sans-serif" font-size="13" font-weight="bold" fill="#ffffff" text-anchor="end">No. of credits recommended: 4</text>
</svg>